<svg id="Layer_1" height="512" viewBox="0 0 128 128" width="512" xmlns="http://www.w3.org/2000/svg"><path d="m62.2 52.1c-7 0-12.7 5.7-12.7 12.7s5.7 12.7 12.7 12.7 12.7-5.7 12.7-12.7-5.7-12.7-12.7-12.7zm0 19.4c-3.7 0-6.7-3-6.7-6.7s3-6.7 6.7-6.7 6.7 3 6.7 6.7-3 6.7-6.7 6.7z"/><path d="m35 97.9c.8 0 1.5-.3 2.1-.9 1.2-1.2 1.2-3.1 0-4.2l-27.6-27.7 28-28c1.2-1.2 1.2-3.1 0-4.2-1.2-1.2-3.1-1.2-4.2 0l-30.1 30.1c-1.2 1.2-1.2 3.1 0 4.2l29.7 29.8c.6.6 1.3.9 2.1.9z"/><path d="m88.5 32.9c-1.2-1.2-3.1-1.2-4.2 0-1.2 1.2-1.2 3.1 0 4.2l28 28-27.7 27.6c-1.2 1.2-1.2 3.1 0 4.2.6.6 1.4.9 2.1.9s1.5-.3 2.1-.9l29.7-29.7c1.2-1.2 1.2-3.1 0-4.2z"/></svg>