<svg enable-background="new 0 0 32 32" height="512" viewBox="0 0 32 32" width="512" xmlns="http://www.w3.org/2000/svg"><g id="BG"><path d="m26 32h-20c-3.314 0-6-2.686-6-6v-20c0-3.314 2.686-6 6-6h20c3.314 0 6 2.686 6 6v20c0 3.314-2.686 6-6 6z" fill="#e3f8fa"/></g><g id="bold"><path d="m22.344 10.366-6.167-2.333c-.115-.043-.24-.043-.354 0l-6.167 2.333c-.194.074-.323.26-.323.468v2.666c0 .164.081.318.215.411.137.093.309.113.462.056l5.99-2.266 5.99 2.267c.057.021.117.032.177.032.1 0 .199-.03.285-.089.135-.093.215-.247.215-.411v-2.667c0-.208-.129-.394-.323-.467z" fill="#8ce1eb"/><g fill="#26c6da"><path d="m22.344 20.366-6.167-2.333c-.115-.043-.24-.043-.354 0l-6.167 2.333c-.194.074-.323.26-.323.468v2.666c0 .164.081.318.215.411.137.094.309.114.462.056l5.99-2.266 5.99 2.267c.057.021.117.032.177.032.1 0 .199-.03.285-.089.135-.093.215-.247.215-.411v-2.667c0-.208-.129-.394-.323-.467z"/><path d="m22.344 15.366-6.167-2.333c-.115-.043-.24-.043-.354 0l-6.167 2.333c-.194.074-.323.26-.323.468v2.666c0 .164.081.318.215.411.137.094.309.114.462.056l5.99-2.266 5.99 2.267c.057.021.117.032.177.032.1 0 .199-.03.285-.089.135-.093.215-.247.215-.411v-2.667c0-.208-.129-.394-.323-.467z"/></g></g></svg>