<svg height="512" viewBox="0 0 64 64" width="512" xmlns="http://www.w3.org/2000/svg"><g id="Icons"><g><g><g><g><path d="m15 52h-6c-.552 0-1-.447-1-1v-12c0-.553.448-1 1-1s1 .447 1 1v11h5c.552 0 1 .447 1 1s-.448 1-1 1z" fill="#c80a50"/></g></g></g><g><g><g><path d="m22 52c-2.206 0-4-1.794-4-4v-6c0-2.206 1.794-4 4-4s4 1.794 4 4v6c0 2.206-1.794 4-4 4zm0-12c-1.103 0-2 .897-2 2v6c0 1.103.897 2 2 2s2-.897 2-2v-6c0-1.103-.897-2-2-2z" fill="#c80a50"/></g></g></g><g><g><path d="m32.813 45.916c1.817-.376 3.187-1.989 3.187-3.916 0-2.206-1.794-4-4-4h-3c-.552 0-1 .447-1 1v12c0 .553.448 1 1 1s1-.447 1-1v-5h.465l3.703 5.555c.301.452.918.588 1.387.277.46-.307.584-.927.277-1.387zm-2.813-5.916h2c1.103 0 2 .897 2 2s-.897 2-2 2h-2z" fill="#c80a50"/></g></g><g><g><path d="m45 46c.553 0 1-.447 1-1s-.447-1-1-1h-5v-4h5c.553 0 1-.447 1-1s-.447-1-1-1h-6c-.553 0-1 .447-1 1v12c0 .553.447 1 1 1h6c.553 0 1-.447 1-1s-.447-1-1-1h-5v-4z" fill="#c80a50"/></g></g><g><g><g><path d="m55 51.999c-.553 0-1-.447-1-1v-7.764l-1.105 2.211c-.34.678-1.449.678-1.789 0l-1.106-2.211v7.764c0 .553-.447 1-1 1s-1-.447-1-1v-12c0-1.052 1.427-1.386 1.895-.447l2.105 4.211 2.105-4.211c.469-.941 1.895-.604 1.895.447v12c0 .553-.447 1-1 1z" fill="#c80a50"/></g></g></g></g><g><g><path d="m55 56h-46c-.552 0-1-.448-1-1s.448-1 1-1h46c.552 0 1 .448 1 1s-.448 1-1 1z" fill="#fab400"/></g></g><g><g><path d="m52 8h-40c-2.209 0-4 1.791-4 4v14c0 2.209 1.791 4 4 4h18c.552 0 1 .448 1 1v2c0 .552.448 1 1 1s1-.448 1-1v-2c0-.552.448-1 1-1h18c2.209 0 4-1.791 4-4v-14c0-2.209-1.791-4-4-4z" fill="#fab400"/></g></g><g><g><path d="m41.85 11.85c-7.129 0-12.571 0-19.7 0-4.49 0-8.15 3.65-8.15 8.15s3.66 8.15 8.15 8.15h19.7c4.49 0 8.15-3.65 8.15-8.15s-3.66-8.15-8.15-8.15zm-5.7 8.15c0 2.29-1.86 4.15-4.15 4.15s-4.15-1.86-4.15-4.15 1.86-4.15 4.15-4.15c2.215 0 4.15 1.808 4.15 4.15zm-14 4.15c-2.29 0-4.15-1.86-4.15-4.15s1.86-4.15 4.15-4.15h2.83c-.72 1.22-1.13 2.64-1.13 4.15s.41 2.93 1.13 4.15zm19.7 0h-2.83c.72-1.22 1.13-2.64 1.13-4.15 0-1.11-.22-2.18-.63-3.15-.14-.35-.31-.68-.5-1h2.83c2.29 0 4.15 1.86 4.15 4.15s-1.86 4.15-4.15 4.15z" fill="#dc9600"/></g></g><g><g><g><g><path d="m50 19c0 4.5-3.66 8.15-8.15 8.15h-9.85c2.99 0 5.6-1.61 7.02-4h2.83c2.29 0 4.15-1.86 4.15-4.15s-1.86-4.15-4.15-4.15h-9.85c-2.29 0-4.15 1.86-4.15 4.15s1.86 4.15 4.15 4.15h-7.02c-.72-1.22-1.13-2.64-1.13-4.15s.41-2.93 1.13-4.15c1.42-2.39 4.03-4 7.02-4h9.85c4.49 0 8.15 3.65 8.15 8.15z" fill="#0a5078"/></g></g></g><g><g><g><path d="m39.52 23.15c-.15.35-.31.68-.5 1-.74 1.25-1.82 2.29-3.1 3h-3.92c2.99 0 5.6-1.61 7.02-4z" fill="#00325a"/></g></g></g><g><g><g><path d="m40.15 19c0 1.51-.41 2.93-1.13 4.15-1.42 2.39-4.03 4-7.02 4h-9.85c-4.49 0-8.15-3.65-8.15-8.15s3.66-8.15 8.15-8.15h9.85c-2.99 0-5.6 1.61-7.02 4h-2.83c-2.29 0-4.15 1.86-4.15 4.15s1.86 4.15 4.15 4.15h9.85c2.29 0 4.15-1.86 4.15-4.15 0-1.26-.57-2.4-1.46-3.15-.73-.62-1.67-1-2.69-1h7.02c.19.32.36.65.5 1 .41.97.63 2.04.63 3.15z" fill="#00a0c8"/></g></g></g></g><g><g><g><path d="m39.52 15.85h-4.83c-.73-.62-1.67-1-2.69-1h7.02c.19.32.36.65.5 1z" fill="#0082aa"/></g></g></g></g></svg>