<?xml version="1.0" encoding="iso-8859-1"?>
<svg version="1.1" id="Capa_1" xmlns="http://www.w3.org/2000/svg" xmlns:xlink="http://www.w3.org/1999/xlink" x="0px" y="0px" fill="hsl(209deg 61% 16%)"
	 viewBox="0 0 512 512" style="enable-background:new 0 0 512 512;" xml:space="preserve">
<g>
	<g>
		<path d="M443.891,272.252v-65.907c0-17.125-13.932-31.055-31.056-31.055H339.34c-17.124,0-31.056,13.931-31.056,31.055v65.907
			c0,2.329,0.542,4.626,1.584,6.709l6.021,12.041l-6.021,12.042c-1.042,2.083-1.584,4.38-1.584,6.709v65.906
			c0,17.124,13.932,31.056,31.056,31.056h73.495c17.124,0,31.056-13.932,31.056-31.056v-65.906c0-2.329-0.542-4.626-1.584-6.709
			l-6.021-12.042l6.021-12.041C443.349,276.878,443.891,274.581,443.891,272.252z M413.891,268.711l-7.792,15.582
			c-2.112,4.224-2.112,9.194,0,13.417l7.792,15.584v62.365c0,0.582-0.474,1.056-1.056,1.056H339.34
			c-0.582-0.001-1.056-0.474-1.056-1.056v-62.365l7.792-15.584c2.112-4.223,2.112-9.193,0-13.417l-7.792-15.582v-62.366
			c0-0.582,0.474-1.055,1.056-1.055h73.495c0.582,0,1.056,0.473,1.056,1.055V268.711z"/>
	</g>
</g>
<g>
	<g>
		<path d="M385.608,276.001h-19.042c-8.284,0-15,6.716-15,15s6.716,15,15,15h19.042c8.284,0,15-6.716,15-15
			S393.892,276.001,385.608,276.001z"/>
	</g>
</g>
<g>
	<g>
		<path d="M203.716,272.252v-65.907c0-17.125-13.932-31.055-31.056-31.055H99.165c-17.124,0-31.056,13.931-31.056,31.055v65.907
			c0,2.329,0.542,4.626,1.584,6.709l6.021,12.041l-6.021,12.042c-1.042,2.083-1.584,4.38-1.584,6.709v65.906
			c0,17.124,13.932,31.056,31.056,31.056h73.495c17.124,0,31.056-13.932,31.056-31.056v-65.906c0-2.329-0.542-4.626-1.584-6.709
			l-6.021-12.042l6.021-12.041C203.174,276.878,203.716,274.581,203.716,272.252z M173.716,268.71l-7.792,15.582
			c-2.112,4.224-2.112,9.194,0,13.417l7.792,15.584v62.365c0,0.582-0.474,1.056-1.056,1.056H99.165v0
			c-0.582,0-1.056-0.474-1.056-1.056v-62.365l7.792-15.584c2.112-4.223,2.112-9.193,0-13.417l-7.792-15.582v-62.366
			c0-0.582,0.474-1.055,1.056-1.055h73.495c0.582,0,1.056,0.473,1.056,1.055V268.71z"/>
	</g>
</g>
<g>
	<g>
		<path d="M145.434,276.001h-19.042c-8.284,0-15,6.716-15,15s6.716,15,15,15h19.042c8.284,0,15-6.716,15-15
			S153.718,276.001,145.434,276.001z"/>
	</g>
</g>
<g>
	<g>
		<path d="M253.388,158.557c-8.284,0-15,6.716-15,15v234.874c0,8.284,6.716,15,15,15s15-6.716,15-15V173.557
			C268.388,165.273,261.672,158.557,253.388,158.557z"/>
	</g>
</g>
<g>
	<g>
		<path d="M467,24.351H45c-24.813,0-45,20.187-45,45v373.298c0,24.813,20.187,45,45,45h422c24.813,0,45-20.187,45-45V69.351
			C512,44.538,491.813,24.351,467,24.351z M482,442.649c0,8.271-6.729,15-15,15H45c-8.271,0-15-6.729-15-15V131.487h452V442.649z
			 M482,101.487H30V69.351c0-8.27,6.729-15,15-15h422c8.271,0,15,6.729,15,15V101.487z"/>
	</g>
</g>
<g>
</g>
<g>
</g>
<g>
</g>
<g>
</g>
<g>
</g>
<g>
</g>
<g>
</g>
<g>
</g>
<g>
</g>
<g>
</g>
<g>
</g>
<g>
</g>
<g>
</g>
<g>
</g>
<g>
</g>
</svg>
