<svg id="Layer_1" enable-background="new 0 0 512 512" height="512" viewBox="0 0 512 512" width="512" xmlns="http://www.w3.org/2000/svg"><g><g fill="#5cd5ff"><path d="m84.054 123.199h30.134v32.727h-30.134z" transform="matrix(.707 -.707 .707 .707 -69.654 110.965)"/><path d="m396.516 124.496h32.727v30.133h-32.727z" transform="matrix(.707 -.707 .707 .707 22.244 332.828)"/></g><path d="m236.513 47.484h39.133v44.237h-39.133z" fill="#5cd5ff"/><path d="m256.08 47.484h19.567v44.237h-19.567z" fill="#5ab5ff"/><path d="m462.77 297.73c0 114.2-92.57 206.77-206.77 206.77-5.25 0-10.45-.2-15.6-.58-106.91-7.97-191.17-97.24-191.17-206.19s84.26-198.22 191.17-206.19c5.15-.38 10.35-.58 15.6-.58 114.2 0 206.77 92.57 206.77 206.77z" fill="#51697a"/><path d="m462.77 297.73c0 114.2-92.57 206.77-206.77 206.77-5.25 0-10.45-.2-15.6-.58 106.91-7.97 191.17-97.24 191.17-206.19s-84.26-198.22-191.17-206.19c5.15-.38 10.35-.58 15.6-.58 114.2 0 206.77 92.57 206.77 206.77z" fill="#354c5b"/><path d="m431.57 297.73c0 96.97-78.6 175.57-175.57 175.57-5.24 0-10.44-.23-15.56-.69-89.68-7.87-160.01-83.16-160.01-174.88s70.33-167.01 160.01-174.88c5.12-.46 10.32-.69 15.56-.69 96.97 0 175.57 78.6 175.57 175.57z" fill="#e5f5f9"/><path d="m431.57 297.73c0 96.97-78.6 175.57-175.57 175.57-5.24 0-10.44-.23-15.56-.69 89.68-7.87 160.01-83.16 160.01-174.88s-70.33-167.01-160.01-174.88c5.12-.46 10.32-.69 15.56-.69 96.97 0 175.57 78.6 175.57 175.57z" fill="#bfd5dd"/><g><path d="m121.34 94.2-19.04 19.04-48.55 48.55-21.3-21.31 48.55-48.54 19.04-19.05z" fill="#51697a"/><path d="m87.702 77.998h26.93v30.133h-26.93z" fill="#354c5b" transform="matrix(.707 -.707 .707 .707 -36.176 98.794)"/></g><g><path d="m458.244 161.785-19.04-19.04-48.55-48.55 21.31-21.3 48.54 48.55 19.05 19.04z" fill="#51697a"/><path d="m444.313 128.148h30.133v26.93h-30.133z" fill="#354c5b" transform="matrix(.707 -.707 .707 .707 34.414 366.307)"/></g><g><path d="m218.17 254.91v85.64c0 8.28-6.72 15-15 15-8.29 0-15-6.72-15-15v-85.64c0-8.28 6.71-15 15-15 8.28 0 15 6.72 15 15z" fill="#5cd5ff"/><path d="m292.13 239.91c-3.93 0-7.75.51-11.38 1.47-19.16 5.03-33.3 22.47-33.3 43.21v26.28c0 20.74 14.14 38.18 33.3 43.21 3.63.96 7.45 1.47 11.38 1.47 12.34 0 23.51-5 31.59-13.09 8.09-8.08 13.09-19.26 13.09-31.59v-26.28c0-24.67-20-44.68-44.68-44.68zm-14.68 70.96v-26.28c0-8.1 6.58-14.68 14.68-14.68 4.05 0 7.73 1.65 10.38 4.3 2.66 2.66 4.3 6.33 4.3 10.38v26.28c0 8.1-6.57 14.68-14.68 14.68-8.1 0-14.68-6.58-14.68-14.68z" fill="#5cd5ff"/><path d="m336.81 284.59v26.28c0 12.33-5 23.51-13.09 31.59-8.08 8.09-19.25 13.09-31.59 13.09-3.93 0-7.75-.51-11.38-1.47 7.76-2.03 14.7-6.11 20.21-11.62 8.08-8.08 13.08-19.26 13.08-31.59v-26.28c0-20.74-14.13-38.18-33.29-43.21 3.63-.96 7.45-1.47 11.38-1.47 24.68 0 44.68 20.01 44.68 44.68z" fill="#5ab5ff"/></g><path d="m218.17 254.91v85.64c0 8.28-6.72 15-15 15v-115.64c8.28 0 15 6.72 15 15z" fill="#5ab5ff"/><path d="m187.31 7.5h137.54v39.98h-137.54z" fill="#51697a"/><g fill="#354c5b"><path d="m221.53 7.5h34.55v39.98h-34.55z"/><path d="m290.3 7.5h34.55v39.98h-34.55z"/></g></g><g><path d="m90.487 238.995c-3.957-1.215-8.155 1.009-9.371 4.969-5.327 17.354-8.028 35.444-8.028 53.766 0 100.902 82.09 182.992 182.992 182.992s182.992-82.09 182.992-182.992-82.09-182.992-182.992-182.992c-34.329 0-67.794 9.563-96.775 27.656-28.184 17.594-51.074 42.502-66.197 72.031-1.888 3.687-.43 8.207 3.257 10.094s8.206.431 10.095-3.256c28.912-56.455 86.244-91.525 149.621-91.525 92.631 0 167.992 75.361 167.992 167.992s-75.361 167.992-167.992 167.992-167.993-75.361-167.993-167.992c0-16.829 2.479-33.438 7.368-49.364 1.216-3.96-1.009-8.156-4.969-9.371z"/><path d="m452.941 167.091c1.465 1.465 3.384 2.197 5.304 2.197 1.919 0 3.839-.732 5.304-2.197l21.31-21.309c1.406-1.406 2.196-3.314 2.196-5.303s-.79-3.897-2.196-5.303l-29.908-29.908c-2.93-2.929-7.678-2.929-10.607 0s-2.929 7.678 0 10.606l24.605 24.605-10.703 10.703-17.828-17.828c-.003-.003-.006-.007-.009-.01l-21.308-21.308c-.003-.003-.007-.006-.01-.009l-17.829-17.829 10.703-10.703 9.447 9.448c2.929 2.929 7.678 2.929 10.606 0 2.93-2.929 2.93-7.677.001-10.606l-14.751-14.751c-1.407-1.407-3.314-2.197-5.304-2.197s-3.896.79-5.304 2.197l-21.31 21.31c-2.929 2.929-2.929 7.678 0 10.606l17.838 17.838-13.147 13.147c-30.878-24.83-67.649-40.422-106.896-45.338v-30.165h41.708c4.143 0 7.5-3.358 7.5-7.5v-39.984c0-4.142-3.357-7.5-7.5-7.5h-137.547c-4.143 0-7.5 3.358-7.5 7.5v39.984c0 4.142 3.357 7.5 7.5 7.5h41.708v30.164c-39.284 4.921-76.089 20.538-106.984 45.409l-13.219-13.219 17.837-17.838c1.406-1.406 2.196-3.314 2.196-5.303s-.79-3.897-2.196-5.303l-21.31-21.309c-2.93-2.929-7.678-2.929-10.607 0l-67.59 67.59c-1.406 1.406-2.196 3.314-2.196 5.303s.79 3.897 2.196 5.303l21.31 21.309c1.465 1.464 3.385 2.197 5.304 2.197s3.839-.732 5.304-2.197l17.837-17.837 13.086 13.085c-31.204 38.136-48.172 85.459-48.172 135.392 0 57.233 22.288 111.042 62.759 151.512 40.469 40.47 94.278 62.758 151.511 62.758 40.651 0 80.212-11.435 114.406-33.067 33.27-21.048 60.1-50.776 77.589-85.97 1.843-3.709.33-8.21-3.379-10.054-3.711-1.844-8.212-.331-10.055 3.378-16.268 32.736-41.225 60.388-72.175 79.969-31.79 20.113-68.578 30.744-106.386 30.744-109.878 0-199.27-89.392-199.27-199.27s89.392-199.271 199.27-199.271 199.271 89.393 199.271 199.271c0 20.21-3.014 40.148-8.957 59.259-1.23 3.956.979 8.159 4.934 9.389 3.96 1.229 8.159-.98 9.389-4.934 6.394-20.555 9.635-41.992 9.635-63.714 0-49.971-16.994-97.329-48.243-135.48l12.996-12.996zm-223.907-127.107v-24.984h19.546v24.984h-12.066zm34.546-24.984h19.547v24.984h-7.48-12.067zm53.774 24.984h-19.228v-24.984h19.228zm-122.548-24.984h19.229v24.984h-19.229zm-141.051 136.18-10.703-10.703 56.983-56.983 10.703 10.703-17.828 17.829c-.003.003-.007.006-.01.009l-21.308 21.308c-.003.003-.006.007-.009.01zm33.747-12.534 10.701-10.701 12.444 12.444c-2.055 1.903-4.088 3.837-6.079 5.829-1.587 1.587-3.135 3.201-4.666 4.828zm156.512-54.842v-28.82h24.133v28.82c-4.004-.221-8.025-.344-12.066-.344s-8.064.123-12.067.344zm168.167 67.159c-1.506-1.599-3.029-3.185-4.589-4.745-2.018-2.018-4.079-3.978-6.162-5.905l12.366-12.367 10.701 10.701z"/><path d="m225.668 340.545v-85.631c0-12.407-10.094-22.5-22.5-22.5s-22.5 10.093-22.5 22.5v85.631c0 12.407 10.094 22.5 22.5 22.5s22.5-10.093 22.5-22.5zm-30 0v-85.631c0-4.136 3.364-7.5 7.5-7.5s7.5 3.364 7.5 7.5v85.631c0 4.136-3.364 7.5-7.5 7.5s-7.5-3.364-7.5-7.5z"/><path d="m292.132 333.045c12.229 0 22.178-9.949 22.178-22.178v-26.274c0-12.229-9.949-22.178-22.178-22.178s-22.179 9.949-22.179 22.178v26.274c0 12.229 9.949 22.178 22.179 22.178zm-7.179-48.452c0-3.958 3.221-7.178 7.179-7.178s7.178 3.22 7.178 7.178v26.274c0 3.958-3.22 7.178-7.178 7.178s-7.179-3.22-7.179-7.178z"/><path d="m239.953 310.867c0 28.771 23.407 52.178 52.179 52.178 28.771 0 52.178-23.407 52.178-52.178v-26.274c0-28.771-23.407-52.178-52.178-52.178s-52.179 23.407-52.179 52.178zm15-26.274c0-20.5 16.679-37.178 37.179-37.178s37.178 16.678 37.178 37.178v26.274c0 20.5-16.678 37.178-37.178 37.178s-37.179-16.678-37.179-37.178z"/><path d="m263.58 171.634v-19.914c0-4.142-3.357-7.5-7.5-7.5s-7.5 3.358-7.5 7.5v19.914c0 4.142 3.357 7.5 7.5 7.5s7.5-3.358 7.5-7.5z"/><path d="m248.58 423.901v19.913c0 4.142 3.357 7.5 7.5 7.5s7.5-3.358 7.5-7.5v-19.913c0-4.142-3.357-7.5-7.5-7.5s-7.5 3.358-7.5 7.5z"/><path d="m405.536 305.23c4.143 0 7.5-3.358 7.5-7.5s-3.357-7.5-7.5-7.5h-19.913c-4.143 0-7.5 3.358-7.5 7.5s3.357 7.5 7.5 7.5z"/><path d="m133.355 305.23c4.143 0 7.5-3.358 7.5-7.5s-3.357-7.5-7.5-7.5h-19.913c-4.143 0-7.5 3.358-7.5 7.5s3.357 7.5 7.5 7.5z"/><path d="m354.036 187.964-14.08 14.081c-2.929 2.929-2.929 7.678.001 10.606 1.464 1.465 3.384 2.197 5.303 2.197s3.839-.732 5.304-2.197l14.08-14.081c2.929-2.929 2.929-7.678-.001-10.606-2.928-2.93-7.677-2.929-10.607 0z"/><path d="m147.496 405.112c1.464 1.464 3.384 2.196 5.303 2.196s3.839-.732 5.304-2.197l14.08-14.081c2.929-2.929 2.929-7.678-.001-10.607-2.928-2.929-7.677-2.928-10.606 0l-14.08 14.081c-2.93 2.931-2.93 7.679 0 10.608z"/><path d="m342.393 382.809c-2.929 2.929-2.929 7.678.001 10.606l14.081 14.081c1.464 1.465 3.384 2.197 5.303 2.197s3.839-.732 5.304-2.197c2.929-2.929 2.929-7.678-.001-10.606l-14.081-14.081c-2.929-2.93-7.678-2.929-10.607 0z"/><path d="m169.316 217.232c1.919 0 3.839-.732 5.304-2.197 2.929-2.929 2.929-7.678 0-10.606l-14.081-14.081c-2.93-2.929-7.678-2.929-10.607 0s-2.929 7.678 0 10.606l14.081 14.081c1.465 1.465 3.384 2.197 5.303 2.197z"/></g></svg>